<?xml version="1.0" encoding="utf-8"?>
<!-- Generated by IcoMoon.io -->
<!DOCTYPE svg PUBLIC "-//W3C//DTD SVG 1.1//EN" "http://www.w3.org/Graphics/SVG/1.1/DTD/svg11.dtd">
<svg version="1.1" xmlns="http://www.w3.org/2000/svg" xmlns:xlink="http://www.w3.org/1999/xlink" width="60" height="60" viewBox="0 0 60 60">
<path d="M30 7.5c-14.497 0-26.25 11.753-26.25 26.25s11.753 26.25 26.25 26.25 26.25-11.752 26.25-26.25-11.752-26.25-26.25-26.25zM30 54.844c-11.65 0-21.094-9.444-21.094-21.094s9.444-21.094 21.094-21.094c11.65 0 21.094 9.444 21.094 21.094s-9.444 21.094-21.094 21.094zM54.773 16.827c0.94-1.644 1.477-3.547 1.477-5.577 0-6.213-5.037-11.25-11.25-11.25-3.622 0-6.844 1.712-8.902 4.371 7.728 1.596 14.368 6.164 18.674 12.456v0zM23.902 4.371c-2.058-2.659-5.279-4.371-8.902-4.371-6.213 0-11.25 5.037-11.25 11.25 0 2.029 0.538 3.933 1.478 5.577 4.307-6.292 10.947-10.86 18.674-12.456z" fill="#929292"></path>
<path d="M30 33.75v-15h-3.75v18.75h15v-3.75z" fill="#444444"></path>
</svg>
