<?xml version="1.0" encoding="utf-8"?>
<!-- Generated by IcoMoon.io -->
<!DOCTYPE svg PUBLIC "-//W3C//DTD SVG 1.1//EN" "http://www.w3.org/Graphics/SVG/1.1/DTD/svg11.dtd">
<svg version="1.1" xmlns="http://www.w3.org/2000/svg" xmlns:xlink="http://www.w3.org/1999/xlink" width="60" height="60" viewBox="0 0 60 60">
<path d="M60.088 46.875c0-16.875-15-13.125-15-26.25 0-1.087-0.105-2.017-0.296-2.808-0.986-6.622-5.4-11.937-11.119-13.556 0.051-0.231 0.077-0.471 0.077-0.715 0-1.95-1.688-3.545-3.75-3.545s-3.75 1.595-3.75 3.545c0 0.245 0.027 0.484 0.077 0.715-6.414 1.816-11.186 8.279-11.323 16.022-0.002 0.113-0.004 0.226-0.004 0.343 0 13.125-15 9.375-15 26.25 0 4.466 9.996 8.203 23.377 9.145 1.261 2.367 3.753 3.98 6.623 3.98s5.362-1.612 6.623-3.98c13.382-0.942 23.377-4.679 23.377-9.145 0-0.013-0.002-0.027-0.002-0.040l0.090 0.040zM48.413 50.045c-3.178 0.848-6.923 1.458-10.943 1.796-0.334-3.833-3.55-6.84-7.469-6.84s-7.135 3.007-7.469 6.84c-4.020-0.338-7.766-0.948-10.943-1.796-4.373-1.167-6.463-2.472-7.229-3.17 0.765-0.698 2.856-2.003 7.229-3.17 5.084-1.357 11.623-2.104 18.413-2.104s13.329 0.747 18.413 2.104c4.373 1.167 6.463 2.472 7.229 3.17-0.765 0.698-2.856 2.003-7.229 3.17z" fill="#ffffff"></path>
</svg>
