<?xml version="1.0" encoding="utf-8"?>
<!-- Generated by IcoMoon.io -->
<!DOCTYPE svg PUBLIC "-//W3C//DTD SVG 1.1//EN" "http://www.w3.org/Graphics/SVG/1.1/DTD/svg11.dtd">
<svg version="1.1" xmlns="http://www.w3.org/2000/svg" xmlns:xlink="http://www.w3.org/1999/xlink" width="75" height="60" viewBox="0 0 75 60">
<path d="M37.5 33.75c6.203 0 11.828 2.523 15.902 6.598l-5.301 5.301c-2.716-2.716-6.466-4.398-10.602-4.398s-7.885 1.682-10.602 4.398l-5.301-5.301c4.074-4.074 9.699-6.598 15.902-6.598zM10.984 29.734c7.083-7.083 16.5-10.984 26.516-10.984s19.434 3.901 26.517 10.984l-5.303 5.303c-5.666-5.666-13.2-8.787-21.213-8.787s-15.547 3.12-21.213 8.787l-5.303-5.303zM57.937 7.877c6.252 2.644 11.866 6.429 16.686 11.25v0l-5.303 5.303c-8.499-8.499-19.8-13.18-31.82-13.18s-23.32 4.681-31.82 13.18l-5.303-5.303c4.82-4.82 10.434-8.605 16.687-11.25 6.475-2.739 13.351-4.127 20.437-4.127s13.962 1.389 20.437 4.127zM33.75 52.5c0-2.071 1.679-3.75 3.75-3.75s3.75 1.679 3.75 3.75c0 2.071-1.679 3.75-3.75 3.75s-3.75-1.679-3.75-3.75z" fill="#ffffff"></path>
</svg>
