<?xml version="1.0" encoding="utf-8"?>
<!-- Generated by IcoMoon.io -->
<!DOCTYPE svg PUBLIC "-//W3C//DTD SVG 1.1//EN" "http://www.w3.org/Graphics/SVG/1.1/DTD/svg11.dtd">
<svg version="1.1" xmlns="http://www.w3.org/2000/svg" xmlns:xlink="http://www.w3.org/1999/xlink" width="60" height="60" viewBox="0 0 60 60">
<path d="M59.453 48.203c-0-0-0-0-0.001-0.001l-18.202-18.202 18.202-18.202c0-0 0-0 0.001-0.001 0.196-0.196 0.338-0.425 0.428-0.669 0.249-0.667 0.107-1.446-0.429-1.982l-8.598-8.598c-0.536-0.536-1.315-0.678-1.982-0.429-0.244 0.091-0.473 0.233-0.669 0.428 0 0-0 0-0 0.001l-18.202 18.202-18.202-18.202c-0-0-0-0-0.001-0.001-0.196-0.196-0.425-0.337-0.669-0.428-0.667-0.249-1.446-0.107-1.982 0.429l-8.599 8.599c-0.536 0.536-0.678 1.316-0.429 1.982 0.091 0.244 0.233 0.473 0.428 0.669 0 0 0 0 0.001 0.001l18.202 18.202-18.202 18.202c-0 0-0 0-0 0.001-0.196 0.196-0.338 0.425-0.429 0.669-0.249 0.667-0.107 1.446 0.429 1.982l8.599 8.598c0.536 0.536 1.316 0.678 1.982 0.429 0.244-0.091 0.473-0.233 0.669-0.428 0-0 0-0 0.001-0.001l18.202-18.202 18.202 18.202c0 0 0 0 0.001 0 0.196 0.196 0.425 0.338 0.669 0.429 0.667 0.249 1.446 0.107 1.982-0.429l8.598-8.599c0.536-0.536 0.678-1.316 0.429-1.982-0.091-0.244-0.233-0.473-0.429-0.669z" fill="#c4c4c4"></path>
</svg>
