<?xml version="1.0" encoding="utf-8"?>
<!-- Generated by IcoMoon.io -->
<!DOCTYPE svg PUBLIC "-//W3C//DTD SVG 1.1//EN" "http://www.w3.org/Graphics/SVG/1.1/DTD/svg11.dtd">
<svg version="1.1" xmlns="http://www.w3.org/2000/svg" xmlns:xlink="http://www.w3.org/1999/xlink" width="53" height="60" viewBox="0 0 53 60">
<path fill="#ffffff" d="M26.246 20.508c-5.239 0-9.489 4.25-9.489 9.492 0 5.237 4.25 9.496 9.489 9.496 5.241 0 9.459-4.259 9.459-9.496-0-5.242-4.219-9.492-9.459-9.492zM45.271 35.453l-1.71 4.12 3.453 6.782-4.23 4.23-6.94-3.278-4.12 1.692-2.091 6.401-0.267 0.85h-5.978l-2.587-7.225-4.12-1.699-6.791 3.439-4.228-4.226 3.274-6.943-1.697-4.116-7.238-2.362v-5.975l7.231-2.591 1.697-4.113-3.041-6.004-0.401-0.787 4.222-4.222 6.949 3.272 4.114-1.701 2.089-6.398 0.269-0.848h5.977l2.589 7.235 4.109 1.701 6.801-3.446 4.226 4.222-3.274 6.938 1.692 4.122 7.251 2.358v5.973l-7.229 2.6z"></path>
</svg>
