<?xml version="1.0" encoding="utf-8"?>
<!-- Generated by IcoMoon.io -->
<!DOCTYPE svg PUBLIC "-//W3C//DTD SVG 1.1//EN" "http://www.w3.org/Graphics/SVG/1.1/DTD/svg11.dtd">
<svg version="1.1" xmlns="http://www.w3.org/2000/svg" xmlns:xlink="http://www.w3.org/1999/xlink" width="60" height="60" viewBox="0 0 60 60">
<path fill="#ffffff" d="M30 7.5c-12.426 0-22.5 10.074-22.5 22.5s10.074 22.5 22.5 22.5c1.521 0 3.006-0.151 4.442-0.439-0.579-0.277-0.642-2.354-0.070-3.538 0.637-1.318 2.637-4.658 0.659-5.779s-1.428-1.626-2.637-2.922-0.714-1.491-0.791-1.824c-0.264-1.143 1.165-2.856 1.23-3.032s0.066-0.835 0.044-1.033-0.901-0.725-1.121-0.747-0.33 0.352-0.637 0.374-1.648-0.813-1.934-1.033-0.417-0.747-0.813-1.143-0.439-0.088-1.055-0.33-2.593-0.967-4.109-1.582-1.648-1.478-1.67-2.087-0.923-1.494-1.345-2.131c-0.422-0.637-0.5-1.516-0.654-1.318s0.791 2.505 0.637 2.571-0.483-0.637-0.923-1.208 0.461-0.264-0.945-3.032 0.439-4.18 0.527-5.625 1.187 0.527 0.615-0.396 0.044-2.856-0.396-3.56-2.944 0.791-2.944 0.791c0.066-0.681 2.197-1.846 3.735-2.922s2.477-0.242 3.713 0.154 1.318 0.264 0.901-0.132 0.176-0.593 1.143-0.439 1.23 1.318 2.703 1.208 0.154 0.286 0.352 0.659-0.22 0.33-1.187 0.989 0.022 0.659 1.736 1.912 1.187-0.835 1.011-1.758 1.252-0.198 1.252-0.198c1.055 0.703 0.86 0.039 1.629 0.28s2.854 2.005 2.854 2.005c-2.615 1.428-0.967 1.582-0.527 1.912s-0.901 0.967-0.901 0.967c-0.549-0.549-0.637 0.022-0.989 0.22s-0.022 0.703-0.022 0.703c-1.818 0.286-1.406 2.197-1.384 2.659s-1.165 1.165-1.472 1.824 0.791 2.087 0.22 2.175-1.143-2.153-4.219-1.318c-0.927 0.252-2.988 1.318-1.89 3.494s2.922-0.615 3.538-0.308-0.176 1.692-0.044 1.714 1.736 0.060 1.824 1.934 2.439 1.714 2.944 1.758 2.197-1.384 2.439-1.45 1.208-0.879 3.318 0.33 3.186 1.033 3.911 1.538 0.22 1.516 0.901 1.846 3.406-0.11 4.087 1.011-2.813 6.746-3.911 7.361-1.604 2.021-2.703 2.922-2.637 2.016-4.087 2.878c-1.284 0.763-1.515 2.131-2.086 2.562 10.070-2.237 17.599-11.221 17.599-21.964 0-12.426-10.074-22.5-22.5-22.5zM35.273 28.616c-0.308 0.088-0.945 0.659-2.505-0.264s-2.637-0.747-2.769-0.901c0 0-0.132-0.374 0.549-0.439 1.399-0.135 3.164 1.296 3.56 1.318s0.593-0.396 1.296-0.169c0.703 0.226 0.176 0.367-0.132 0.455zM27.913 9.741c-0.153-0.111 0.127-0.24 0.294-0.461 0.096-0.128 0.025-0.341 0.146-0.461 0.33-0.33 1.956-0.791 1.638 0.11s-1.835 0.989-2.077 0.813zM31.846 12.598c-0.549-0.022-1.842-0.159-1.604-0.396 0.928-0.923-0.352-1.187-1.143-1.252s-1.121-0.505-0.725-0.549 1.978 0.022 2.241 0.242 1.692 0.791 1.78 1.208 0 0.769-0.549 0.747zM36.614 12.444c-0.439 0.352-2.651-1.261-3.076-1.626-1.846-1.582-2.834-1.055-3.222-1.318s-0.25-0.615 0.344-1.143 2.263 0.176 3.23 0.286 2.087 0.857 2.109 1.745c0.022 0.888 1.055 1.705 0.615 2.056z"></path>
</svg>
