<?xml version="1.0" encoding="utf-8"?>
<!-- Generated by IcoMoon.io -->
<!DOCTYPE svg PUBLIC "-//W3C//DTD SVG 1.1//EN" "http://www.w3.org/Graphics/SVG/1.1/DTD/svg11.dtd">
<svg version="1.1" xmlns="http://www.w3.org/2000/svg" xmlns:xlink="http://www.w3.org/1999/xlink" width="60" height="60" viewBox="0 0 60 60">
<path fill="#ffffff" d="M45 0h-30c-2.070 0-3.75 1.68-3.75 3.75v52.5c0 2.070 1.68 3.75 3.75 3.75h30c2.070 0 3.75-1.68 3.75-3.75v-52.5c0-2.070-1.68-3.75-3.75-3.75zM30 56.25c-6.212 0-11.25-5.038-11.25-11.25s5.038-11.25 11.25-11.25 11.25 5.038 11.25 11.25-5.038 11.25-11.25 11.25zM45 28.125c0 1.037-0.838 1.875-1.875 1.875h-26.25c-1.035 0-1.875-0.838-1.875-1.875v-22.5c0-1.037 0.84-1.875 1.875-1.875h26.25c1.037 0 1.875 0.838 1.875 1.875v22.5zM30 41.25c-2.070 0-3.75 1.68-3.75 3.75s1.68 3.75 3.75 3.75 3.75-1.68 3.75-3.75-1.68-3.75-3.75-3.75z"></path>
</svg>
