<?xml version="1.0" encoding="utf-8"?>
<!-- Generated by IcoMoon.io -->
<!DOCTYPE svg PUBLIC "-//W3C//DTD SVG 1.1//EN" "http://www.w3.org/Graphics/SVG/1.1/DTD/svg11.dtd">
<svg version="1.1" xmlns="http://www.w3.org/2000/svg" xmlns:xlink="http://www.w3.org/1999/xlink" width="60" height="60" viewBox="0 0 60 60">
<path fill="#ffffff" d="M41.25 0h-22.5c-4.142 0-7.5 3.358-7.5 7.5v45c0 4.142 3.358 7.5 7.5 7.5h22.5c4.142 0 7.5-3.358 7.5-7.5v-45c0-4.142-3.358-7.5-7.5-7.5zM30.938 5.625h5.625c0.516 0 0.938 0.42 0.938 0.938s-0.422 0.938-0.938 0.938h-5.625c-0.517 0-0.938-0.42-0.938-0.938s0.42-0.938 0.938-0.938zM24.375 3.75c1.035 0 1.875 0.84 1.875 1.875s-0.84 1.875-1.875 1.875-1.875-0.84-1.875-1.875 0.84-1.875 1.875-1.875zM33.75 54.375c0 1.037-0.838 1.875-1.875 1.875h-3.75c-1.035 0-1.875-0.838-1.875-1.875v-3.75c0-1.037 0.84-1.875 1.875-1.875h3.75c1.037 0 1.875 0.838 1.875 1.875v3.75zM45 43.125c0 1.037-0.838 1.875-1.875 1.875h-26.25c-1.035 0-1.875-0.838-1.875-1.875v-30c0-1.035 0.84-1.875 1.875-1.875h26.25c1.037 0 1.875 0.84 1.875 1.875v30z"></path>
</svg>
