<?xml version="1.0" encoding="utf-8"?>
<!-- Generated by IcoMoon.io -->
<!DOCTYPE svg PUBLIC "-//W3C//DTD SVG 1.1//EN" "http://www.w3.org/Graphics/SVG/1.1/DTD/svg11.dtd">
<svg version="1.1" xmlns="http://www.w3.org/2000/svg" xmlns:xlink="http://www.w3.org/1999/xlink" width="60" height="60" viewBox="0 0 60 60">
<path d="M58.125 22.5h-20.625v-20.625c0-1.035-0.84-1.875-1.875-1.875h-11.25c-1.035 0-1.875 0.84-1.875 1.875v20.625h-20.625c-1.035 0-1.875 0.84-1.875 1.875v11.25c0 1.035 0.84 1.875 1.875 1.875h20.625v20.625c0 1.035 0.84 1.875 1.875 1.875h11.25c1.035 0 1.875-0.84 1.875-1.875v-20.625h20.625c1.035 0 1.875-0.84 1.875-1.875v-11.25c0-1.035-0.84-1.875-1.875-1.875z" fill="#c4c4c4"></path>
</svg>
