<?xml version="1.0" encoding="utf-8"?>
<!-- Generated by IcoMoon.io -->
<!DOCTYPE svg PUBLIC "-//W3C//DTD SVG 1.1//EN" "http://www.w3.org/Graphics/SVG/1.1/DTD/svg11.dtd">
<svg version="1.1" xmlns="http://www.w3.org/2000/svg" xmlns:xlink="http://www.w3.org/1999/xlink" width="60" height="60" viewBox="0 0 60 60">
<path d="M60 30c0-16.569-13.431-30-30-30s-30 13.431-30 30c0 12.894 8.135 23.887 19.552 28.129l-0.802 1.871h22.5l-0.802-1.871c11.417-4.242 19.552-15.235 19.552-28.129zM28.523 37.197c-1.336-0.574-2.273-1.901-2.273-3.447 0-2.071 1.679-3.75 3.75-3.75s3.75 1.679 3.75 3.75c0 1.546-0.936 2.874-2.273 3.447l-1.477-3.447-1.477 3.447zM31.539 37.341c3.404-0.71 5.961-3.727 5.961-7.341 0-4.142-3.358-7.5-7.5-7.5s-7.5 3.358-7.5 7.5c0 3.615 2.558 6.628 5.962 7.338l-4.373 10.202c-5.346-2.294-9.090-7.605-9.090-13.79 0-8.284 6.716-15.703 15-15.703s15 7.419 15 15.703c0 6.186-3.744 11.496-9.090 13.79l-4.371-10.199zM40.339 57.874l-4.331-10.107c7.409-2.504 12.743-9.512 12.743-17.767 0-10.355-8.395-18.75-18.75-18.75s-18.75 8.395-18.75 18.75c0 8.254 5.334 15.263 12.743 17.767l-4.331 10.107c-9.351-4.013-15.902-13.303-15.902-24.124 0-14.492 11.748-26.943 26.24-26.943s26.24 12.451 26.24 26.943c0 10.821-6.55 20.111-15.902 24.124z" fill="#444444"></path>
</svg>
