<?xml version="1.0" encoding="utf-8"?>
<!-- Generated by IcoMoon.io -->
<!DOCTYPE svg PUBLIC "-//W3C//DTD SVG 1.1//EN" "http://www.w3.org/Graphics/SVG/1.1/DTD/svg11.dtd">
<svg version="1.1" xmlns="http://www.w3.org/2000/svg" xmlns:xlink="http://www.w3.org/1999/xlink" width="60" height="60" viewBox="0 0 60 60">
<path fill="#ffffff" d="M17.979 22.895c0.93-0.955 0.93-2.504 0-3.459-1.202-1.237-1.795-2.837-1.799-4.46 0.004-1.627 0.597-3.225 1.799-4.464 0.93-0.957 0.93-2.506 0-3.461-0.465-0.48-1.071-0.719-1.682-0.719-0.608 0-1.219 0.236-1.684 0.716-2.125 2.185-3.201 5.064-3.197 7.929-0.004 2.859 1.073 5.738 3.197 7.92 0.93 0.955 2.436 0.955 3.366 0zM8.736 1.942c-0.476-0.487-1.095-0.73-1.717-0.73-0.619 0-1.241 0.243-1.713 0.73-3.501 3.595-5.262 8.32-5.258 13.033-0.004 4.707 1.757 9.442 5.255 13.033 0.948 0.974 2.482 0.974 3.43 0 0.944-0.972 0.944-2.55 0-3.52-2.561-2.636-3.834-6.062-3.834-9.514s1.274-6.882 3.834-9.514c0.944-0.976 0.944-2.553 0.004-3.52zM30.060 21.085c3.36 0 6.091-2.729 6.091-6.091s-2.731-6.091-6.091-6.091c-3.362 0-6.091 2.729-6.091 6.091s2.729 6.091 6.091 6.091zM54.7 1.979c-0.948-0.974-2.482-0.974-3.426 0-0.948 0.972-0.948 2.55 0 3.52 2.559 2.632 3.833 6.062 3.833 9.514 0 3.448-1.278 6.878-3.836 9.51-0.944 0.974-0.944 2.553 0.004 3.52 0.472 0.487 1.091 0.73 1.713 0.73 0.619 0 1.241-0.243 1.713-0.73 3.5-3.591 5.26-8.326 5.253-13.033 0.008-4.704-1.753-9.439-5.253-13.030zM30.075 25.95v0c-1.552 0.004-3.108-0.379-4.517-1.138l-11.785 31.415h5.579l3.212-3.748h14.994l3.163 3.748h5.582l-11.783-31.407c-1.391 0.749-2.914 1.131-4.444 1.131zM30.038 27.745l3.77 13.487h-7.497l3.726-13.487zM22.564 48.729l3.748-3.748h7.497l3.748 3.748h-14.994zM42.023 7.092c-0.93 0.955-0.93 2.504 0 3.459 1.201 1.237 1.794 2.842 1.797 4.46-0.004 1.627-0.597 3.229-1.797 4.464-0.93 0.957-0.93 2.506 0 3.461 0.461 0.48 1.069 0.716 1.684 0.716 0.604 0 1.215-0.236 1.68-0.716 2.127-2.182 3.203-5.064 3.196-7.925 0.007-2.859-1.065-5.738-3.196-7.92-0.926-0.955-2.434-0.955-3.364 0z"></path>
</svg>
