<?xml version="1.0" encoding="utf-8"?>
<!-- Generated by IcoMoon.io -->
<!DOCTYPE svg PUBLIC "-//W3C//DTD SVG 1.1//EN" "http://www.w3.org/Graphics/SVG/1.1/DTD/svg11.dtd">
<svg version="1.1" xmlns="http://www.w3.org/2000/svg" xmlns:xlink="http://www.w3.org/1999/xlink" width="60" height="60" viewBox="0 0 60 60">
<path d="M32.169 43.419c-0.72 0-1.439-0.275-1.989-0.824-1.098-1.098-1.098-2.879 0-3.977 4.752-4.752 4.752-12.484 0-17.236-1.098-1.098-1.098-2.879 0-3.977s2.879-1.098 3.977 0c6.945 6.945 6.945 18.246 0 25.191-0.549 0.549-1.269 0.823-1.989 0.823z" fill="#ffffff"></path>
<path d="M24.375 56.25c-0.488 0-0.967-0.19-1.326-0.549l-14.451-14.451h-6.723c-1.035 0-1.875-0.839-1.875-1.875v-18.75c0-1.035 0.84-1.875 1.875-1.875h6.723l14.451-14.451c0.536-0.536 1.343-0.697 2.043-0.406s1.157 0.974 1.157 1.732v48.75c0 0.758-0.457 1.442-1.157 1.732-0.232 0.096-0.476 0.143-0.717 0.143z" fill="#faff00"></path>
</svg>
